<svg xmlns="http://www.w3.org/2000/svg" version="1.1" xmlns:xlink="http://www.w3.org/1999/xlink" viewBox="0 0 200 200"><rect width="200" height="200" fill="url('#gradient')"></rect><defs><linearGradient id="gradient" gradientTransform="rotate(39 0.5 0.5)"><stop offset="0%" stop-color="#eab16b"></stop><stop offset="100%" stop-color="#eab16b"></stop></linearGradient></defs><g><g fill="#1e5488" transform="matrix(3.8537634408602153,0,0,3.8537634408602153,5.528271048427911,128.30952468687488)" stroke="#4d1f42" stroke-width="0.8"><path d="M4.39-10.57L4.39 0L1.09 0L1.09-10.57L4.39-10.57ZM0.90-13.29L0.90-13.29Q0.90-13.99 1.41-14.44Q1.91-14.89 2.72-14.89Q3.54-14.89 4.04-14.44Q4.55-13.99 4.55-13.29Q4.55-12.59 4.04-12.14Q3.54-11.69 2.72-11.69Q1.91-11.69 1.41-12.14Q0.90-12.59 0.90-13.29ZM18.45-14.22L18.45 0L15.04 0L10-8.85L10 0L6.57 0L6.57-14.22L10-14.22L15.03-5.37L15.03-14.22L18.45-14.22ZM20.06-4.82L20.05-5.38Q20.05-6.96 20.66-8.20Q21.28-9.43 22.43-10.10Q23.58-10.76 25.14-10.76L25.14-10.76Q27.51-10.76 28.88-9.29Q30.24-7.82 30.24-5.29L30.24-5.29L30.24-5.18Q30.24-2.71 28.87-1.25Q27.50 0.20 25.16 0.20L25.16 0.20Q22.90 0.20 21.53-1.16Q20.17-2.51 20.06-4.82L20.06-4.82ZM23.35-5.77L23.34-5.18Q23.34-3.71 23.80-3.03Q24.26-2.34 25.16-2.34L25.16-2.34Q26.91-2.34 26.95-5.05L26.95-5.05L26.95-5.38Q26.95-8.22 25.14-8.22L25.14-8.22Q23.49-8.22 23.35-5.77L23.35-5.77ZM32.24-13.19L35.53-13.19L35.53-10.57L37.27-10.57L37.27-8.28L35.53-8.28L35.53-3.45Q35.53-2.85 35.74-2.62Q35.96-2.38 36.59-2.38L36.59-2.38Q37.08-2.38 37.41-2.44L37.41-2.44L37.41-0.09Q36.52 0.20 35.56 0.20L35.56 0.20Q33.86 0.20 33.05-0.61Q32.24-1.41 32.24-3.04L32.24-3.04L32.24-8.28L30.89-8.28L30.89-10.57L32.24-10.57L32.24-13.19ZM43.67 0.20L43.67 0.20Q41.24 0.20 39.74-1.25Q38.23-2.71 38.23-5.03L38.23-5.03L38.23-5.30Q38.23-6.92 38.83-8.16Q39.43-9.40 40.59-10.08Q41.74-10.76 43.32-10.76L43.32-10.76Q45.55-10.76 46.84-9.38Q48.13-8.00 48.13-5.53L48.13-5.53L48.13-4.25L41.58-4.25Q41.76-3.36 42.35-2.85Q42.95-2.34 43.90-2.34L43.90-2.34Q45.46-2.34 46.34-3.44L46.34-3.44L47.84-1.66Q47.23-0.81 46.10-0.31Q44.97 0.20 43.67 0.20ZM43.30-8.22L43.30-8.22Q41.86-8.22 41.58-6.31L41.58-6.31L44.90-6.31L44.90-6.56Q44.92-7.35 44.50-7.79Q44.08-8.22 43.30-8.22Z"></path></g></g></svg>